<?xml version="1.0"?>
<svg version="1.1" viewBox="0 0 731.6853 296.66034" id="svg20" width="731.6853" height="296.66034" xmlns="http://www.w3.org/2000/svg" xmlns:svg="http://www.w3.org/2000/svg">
  <defs id="defs20"></defs>
  <path fill="#526b41" fill-opacity="0.992" d="M 31.960785,54.997736 112.71079,3.0877362 a 5.38,5.49 7.6 0 0 0.82,-0.6399996 q 1.68,-1.58000003 3.18,-2.32000003 a 1.35,1.31 42.4 0 1 1.07,-0.03 c 1.95,0.83 4.57,1.21000003 7.07,2.15000003 q 40.86,15.2599994 53,19.8999994 53.78,20.57 97.64,36.84 3.08,1.14 4.71,4.06 14.66,26.249997 22.33,39.519994 1.77,3.06 3.7,7.61 a 0.42,0.42 0 0 1 -0.65,0.5 c -1.87,-1.45 -3.74,-1.53 -5.38,-2.28 q -10.46,-4.79 -11.1,-5.01 -0.37,-0.13 -36.78,-17.059994 c -15.16,-7.06 -31.54,-14.89 -49.58,-23.61 q -8.64,-4.17 -11.48,-5.46 c -7.39,-3.37 -12.58,-6.28 -19.61,-9.43 -7.21,-3.22 -10.72,-5.48 -17.54,-8.46 q -2.81,-1.23 -13.49,-6.85 a 2.12,2.02 57.7 0 0 -0.88,-0.22 c -4.22,-0.05 -6.26,1.15 -9.93,1.9 q -15.87,3.26 -36.270005,7.9 -32.55,7.41 -61.37,13.42 a 0.28,0.29 23 0 1 -0.21,-0.52 z" id="path1"></path>
  <path fill="#526b41" fill-opacity="0.992" d="m 369.44079,97.917734 q 2.06,1.31 6.53,3.029996 c 7.74,2.98 17.35,3.83 25.32,0.82 q 5.02,-1.889996 4.2,-7.059996 c -0.52,-3.279997 -6.67,-4.960001 -9.45,-5.540001 -6.82,-1.44 -11.82,-2.16 -18.93,-4.059997 q -1.74,-0.46 -4.97,-2.34 c -8.51,-4.94 -8.36,-17.13 -1.45,-23.17 q 4.42,-3.87 9.41,-5.17 c 10.65,-2.78 23.74,-1.71 33.84,3.96 a 1.18,1.19 23.4 0 1 0.55,1.4 l -2.45,7.42 a 1.14,1.13 23.9 0 1 -1.65,0.63 q -2.47,-1.43 -8.37,-3.46 c -5.08,-1.75 -12.04,-1.72 -16.53,-0.99 -4.09,0.66 -10.29,3.79 -7.21,9.15 a 2.29,2.28 88.9 0 0 0.87,0.84 c 5.13,2.78 8.83,3.32 15.83,4.61 q 10.34,1.9 15.13,4.38 c 11,5.679997 9.84,20.309994 0.04,26.439994 -7.7,4.81 -17.35,4.86 -26.31,4.09 q -10.02,-0.86 -19.17,-6.07 a 1.24,1.24 0 0 1 -0.46,-1.7 l 3.98,-6.899996 a 0.9,0.89 30.9 0 1 1.25,-0.31 z" id="path2" style="fill:#d9a628;fill-opacity:0.992"></path>
  <path fill="#526b41" fill-opacity="0.992" d="M 75.790785,63.157736 1.8307852,115.79773 a 0.38,0.38 0 0 1 -0.6,-0.29 L 7.8515116e-4,79.977736 a 1.57,1.56 82.9 0 1 1.22000004884,-1.58 q 0.19,-0.04 14.2099998,-3.33 6.35,-1.49 13.05,-2.68 4.52,-0.8 13.04,-2.71 16.52,-3.69 21.29,-4.42 6.88,-1.05 12.79,-2.53 a 0.24,0.24 0 0 1 0.19,0.43 z" id="path3"></path>
  <path fill="#526b41" fill-opacity="0.992" d="m 179.18079,69.937736 a 0.23,0.23 0 0 1 0.35,-0.18 q 17.89,10.91 35.6,21.080001 1.91,1.1 3.11,2.559997 a 1,1.01 46.1 0 1 -0.03,1.32 c -4.53,5.03 -9.27,8.109996 -15.93,11.019996 -12.85,5.63 -28.04,5.65 -41.48,1.86 -16.99,-4.8 -30.32,-19.289997 -36.57,-35.399994 a 0.45,0.45 0 0 1 0.29,-0.6 q 5.38,-1.63 10.3,-3 c 7.87,-2.19 15.91,-2.42 24.55,-2.5 a 1.72,1.72 0 0 1 1.72,1.51 q 0.22,1.74 0.34,4.05 c 0.56,11.21 5.82,23.309998 16.19,28.729994 q 1.57,0.82 4.59,1.21 2.46,0.31 4.03,-1.01 c 5.27,-4.429996 2.54,-11.849997 -0.4,-16.669994 q -3.7,-6.08 -6.14,-11.38 -0.62,-1.33 -0.52,-2.6 z" id="path4" style="fill:#d9a628;fill-opacity:0.992"></path>
  <path fill="#526b41" fill-opacity="0.992" d="m 526.99079,106.97773 c -5.7,7.48 -16.6,8.23 -24.7,5.04 a 5.21,5.76 75.8 0 1 -0.96,-0.51 q -7.48,-5.09 -5.11,-14.969996 c 1.49,-6.239997 10.57,-8.760001 16.08,-9.180001 q 7.56,-0.57 13.59,0.06 a 1.15,1.15 0 0 0 1.25,-1.339997 c -1.54,-8.78 -10.62,-8.85 -17.48,-6.81 q -1.19,0.35 -7.77,2.97 a 0.89,0.9 76.4 0 1 -1.22,-0.74 q -0.32,-2.98 -3.09,-5.73 a 1.13,1.14 57.5 0 1 0.42,-1.87 q 1.68,-0.59 4.93,-1.93 c 6.71,-2.76 14.22,-3.4 21.2,-2.39 11.33,1.65 14.07,9.78 14.08,19.839997 q 0.01,14.559997 0.02,22.619997 a 0.46,0.47 88.7 0 1 -0.45,0.46 l -8.7,0.3 a 1.52,1.52 0 0 1 -1.57,-1.47 l -0.15,-4.23 a 0.21,0.21 0 0 0 -0.37,-0.12 z m -17.69,-2.68 c 3.31,2.05 9.84,0.92 13.02,-0.61 q 4.25,-2.04 4.89,-6.889996 0.34,-2.59 -2.83,-2.75 c -4.06,-0.2 -15.45,-0.23 -16.9,3.64 q -1.13,3.029996 0.95,5.809996 a 3.11,2.96 86.2 0 0 0.87,0.8 z" id="path5" style="fill:#d9a628;fill-opacity:0.992"></path>
  <path fill="#526b41" fill-opacity="0.992" d="m 590.13076,75.807736 c 0.62,-0.62 1.36,-1.73 1.78,-2.09 5.12,-4.39 12.24,-5.53 18.78,-3.9 7.37,1.83 11.03,7.61 11.25,14.9 q 0.32,10.189998 0.2,27.169994 a 0.69,0.69 0 0 1 -0.7,0.68 l -10.29,-0.21 a 0.5,0.51 1.1 0 1 -0.49,-0.52 q 0.21,-12.829996 -0.07,-23.399997 -0.27,-10.229997 -10.53,-9.529997 c -4.65,0.31 -7.84,5.4 -8.61,9.899997 q -0.18,1.06 -0.14,7.740001 0.07,13.349996 0,15.309996 a 0.61,0.61 0 0 1 -0.61,0.59 h -9.84998 a 0.55,0.55 0 0 1 -0.55,-0.55 V 86.627736 a 1.02,0.56 55.3 0 0 -0.02,-0.19 q -2,-8.18 -9.79,-7.71 c -6.00999,0.36 -9.32999,5.09 -9.59999,10.769997 q -0.46,9.440001 -0.11,22.189997 a 0.72,0.72 0 0 1 -0.72,0.74 h -10.24 a 0.45,0.45 0 0 1 -0.45,-0.45 V 71.177736 a 0.8,0.81 0 0 1 0.8,-0.81 h 9.06 a 0.73,0.74 0.4 0 1 0.73,0.75 l -0.08,4.01 a 0.48,0.48 0 0 0 0.85,0.31 q 4.38,-5.59 11.49999,-6.23 c 4.35,-0.39 12.34,-0.3 15.34,4.03 q 0.12,0.17 1.62998,2.47 a 0.61,0.6 50.8 0 0 0.93,0.1 z" id="path6" style="fill:#d9a628;fill-opacity:0.992"></path>
  <path fill="#526b41" fill-opacity="0.992" d="m 644.21076,108.00773 v 20.53 a 0.54,0.55 0 0 1 -0.54,0.55 h -10.2 a 0.6,0.6 0 0 1 -0.6,-0.6 V 71.267736 a 0.86,0.86 0 0 1 0.86,-0.86 h 9.1 a 0.5,0.51 0 0 1 0.5,0.51 v 4.46 a 0.41,0.41 0 0 0 0.72,0.27 q 1.67,-1.84 2.85,-2.86 c 4.12,-3.58 10.95,-4.2 16.39,-3.48 q 6.8,0.9 10.9,4.94 c 6.37,6.27 8.16,15.729997 5.81,24.369998 q -1.47,5.399996 -5.17,8.969996 c -5.28,5.1 -13.74,6.99 -20.52,5.86 q -5.66,-0.94 -9.77,-5.57 a 0.19,0.19 0 0 0 -0.33,0.13 z m 16.9637,-28.900294 a 12.77,13.26 20.5 0 0 -16.605,7.948197 12.77,13.26 20.5 0 0 7.3176,16.892397 12.77,13.26 20.5 0 0 16.605,-7.948196 12.77,13.26 20.5 0 0 -7.3176,-16.892398 z" id="path7" style="fill:#d9a628;fill-opacity:0.992"></path>
  <path fill="#526b41" fill-opacity="0.992" d="m 471.73079,98.547734 a 0.18,0.18 0 0 0 0.34,0 l 9.05,-27.519998 a 0.88,0.89 9.1 0 1 0.84,-0.61 h 9.7 a 0.62,0.62 0 0 1 0.58,0.83 l -14.36,40.279994 a 1.48,1.48 0 0 1 -1.39,0.98 h -8.58 a 1.24,1.25 79.9 0 1 -1.17,-0.81 l -9.8,-26.359994 a 0.29,0.29 0 0 0 -0.55,0.01 l -8.77,26.659994 a 0.66,0.68 9.1 0 1 -0.63,0.47 h -9.6 a 0.94,0.92 79.3 0 1 -0.86,-0.6 l -15.11,-40.639994 a 0.58,0.58 0 0 1 0.55,-0.78 h 10.18 a 1.13,1.12 80 0 1 1.06,0.75 q 2.32,6.59 7.77,23.429998 c 0.45,1.39 0.39,2.49 1.41,3.71 a 0.33,0.33 0 0 0 0.58,-0.17 q 0.28,-2.22 0.56,-3.03 3.83,-10.899998 8.01,-24.189998 a 0.87,0.85 8.8 0 1 0.82,-0.59 h 8.75 a 1.19,1.2 80.4 0 1 1.13,0.8 z" id="path8" style="fill:#d9a628;fill-opacity:0.992"></path>
  <path fill="#526b41" fill-opacity="0.992" d="m 707.29076,98.757734 a 0.73,0.74 44.4 0 0 1.36,-0.02 l 10.95,-27.459998 a 1.38,1.39 11.1 0 1 1.28,-0.87 h 10.2 a 0.6,0.6 0 0 1 0.55,0.85 c -10.33,22.999998 -16.08,35.529994 -19.62,43.609994 -2.85,6.48 -4.81,10.12 -11.04,13.7 a 3.62,3.59 23.4 0 1 -1,0.39 q -6.62,1.42 -13.68,0.73 a 1.78,1.78 0 0 1 -1.6,-1.77 v -7.13 a 1.02,1.03 8.7 0 1 1.33,-0.98 q 3.52,1.13 8.9,0.35 a 2.62,2.63 23.4 0 0 1.15,-0.46 q 3.88,-2.75 5.14,-7.7 a 2.36,2.37 39.8 0 0 -0.14,-1.55 l -18.07,-39.339994 a 0.49,0.49 0 0 1 0.44,-0.69 h 11.06 a 1.21,1.2 78.6 0 1 1.11,0.74 z" id="path9" style="fill:#d9a628;fill-opacity:0.992"></path>
  <path fill="#526b41" fill-opacity="0.992" d="m 2.0207852,203.70773 a 0.19,0.19 0 0 1 0.17,-0.33 q 5.57,1.82 10.3099998,3.65 2.96,1.15 10.48,3.12 c 8.15,2.14 18.16,5.74 25.5,7.67 q 1.24,0.32 5.49,1.94 6.3,2.4 14.71,4.77 7.98,2.25 14.79,4.44 22.160005,7.12 40.090005,11.46 2.18,0.53 4.21,0.68 a 2.08,2.14 35.1 0 0 1.11,-0.21 l 94.75,-46.52 a 0.11,0.3 46.3 0 1 0.09,-0.04 l 5.8,-2.25 a 0.3,0.3 0 0 0 -0.02,-0.56 q -1.34,-0.4 -10.89,-5.01 -38.98,-18.81 -69.33,-33.42 -24.44,-11.77 -59.210005,-28.42 c -3.46,-1.66 -4.92,-1.87 -8.74,-1.2 q -14.74,2.58 -22.06,3.53 -5.22,0.69 -9.02,1.62 a 0.41,0.41 0 0 0 -0.09,0.77 q 15.58,7.91 36.46,18.24 18.130005,8.98 80.200005,40.28 3.11,1.57 16.85,7.77 a 0.34,0.33 22.5 0 1 0.18,0.42 v 0.01 a 0.29,0.29 0 0 1 -0.35,0.18 q -20.85,-5.98 -24.55,-6.72 -9.72,-1.96 -13.22,-3.23 c -3.28,-1.18 -7.67,-1.68 -11.15,-2.9 q -3.5,-1.22 -24.19,-6.26 -1.84,-0.45 -11.730005,-3.04 -0.22,-0.06 -8,-2.9 -4.48,-1.64 -7.91,-3.08 -35.96,-15.15 -68.3,-31.37 a 0.6,0.6 0 0 1 -0.06,-1.04 l 75.55,-49.209994 a 2.56,2.55 49.7 0 1 3.12,0.259997 c 4.45,4.090004 9.230005,7.550001 13.840005,11.370001 3.02,2.509996 6.4,5.059996 9.56,6.569996 q 17.15,8.18 36.53,15.74 4.77,1.86 42.5,15.58 21.37,7.77 34.64,12.55 28.58,10.28 69.91,25.59 2.52,0.93 3.54,1.61 a 1.24,1.25 17.5 0 1 0.55,1.07 l -0.75,36.97 a 3.13,3.16 76.9 0 1 -1.73,2.75 l -158.28,79.68 a 3.51,3.51 0 0 1 -3.64,-0.3 q -4.93,-3.59 -8.17,-5.56 c -6.32,-3.85 -13.16,-9.23 -19.16,-13.2 q -1.02,-0.68 -15.210005,-10.17 -48.9,-32.72 -65.86,-44.26 -4.25,-2.89 -8,-5.27 c -5.78,-3.66 -9.21,-6.48 -14.7199998,-9.49 q -2.66,-1.46 -6.59,-4.33 z" id="path10"></path>
  <path fill="#526b41" fill-opacity="0.992" d="m 254.06079,121.74773 c 0.23,-0.77 1.74,-1.83 2.13,-3.11 q 1.82,-6.06 -2.21,-10.92 -1.72,-2.08 -4.71,-5.32 a 0.15,0.14 76.1 0 1 0.14,-0.24 l 38.99,10.29 a 0.68,0.67 44.2 0 1 0.02,1.3 q -9.6,2.79 -26.37,7.32 -2.66,0.71 -7.54,1.22 a 0.42,0.42 0 0 1 -0.45,-0.54 z" id="path11"></path>
  <path fill="#526b41" fill-opacity="0.992" d="m 368.07079,177.35773 a 0.9,0.89 30.6 0 1 1.25,-0.32 q 2.06,1.3 6.53,3 c 7.75,2.94 17.35,3.74 25.29,0.7 q 5.01,-1.91 4.16,-7.07 c -0.53,-3.28 -6.68,-4.92 -9.46,-5.49 -6.82,-1.41 -11.81,-2.1 -18.92,-3.97 q -1.74,-0.45 -4.98,-2.31 c -8.52,-4.89 -8.43,-17.07 -1.56,-23.13 q 4.4,-3.89 9.38,-5.21 c 10.62,-2.82 23.7,-1.82 33.81,3.8 a 1.18,1.19 23.1 0 1 0.56,1.39 l -2.42,7.42 a 1.14,1.13 23.6 0 1 -1.64,0.64 q -2.47,-1.42 -8.38,-3.41 c -5.08,-1.73 -12.03,-1.67 -16.51,-0.92 -4.08,0.68 -10.26,3.84 -7.15,9.18 a 2.28,2.27 88.6 0 0 0.87,0.83 c 5.13,2.75 8.83,3.27 15.83,4.53 q 10.33,1.85 15.13,4.3 c 11.01,5.62 9.92,20.24 0.16,26.41 -7.66,4.84 -17.3,4.93 -26.25,4.2 q -10.01,-0.81 -19.17,-5.97 a 1.24,1.24 0 0 1 -0.47,-1.69 z" id="path12" style="fill:#d9a628;fill-opacity:0.992"></path>
  <path fill="#526b41" fill-opacity="0.992" d="m 586.30078,153.78773 q 0.48,-0.47 1.01,-1.5 a 2.86,2.83 85.5 0 1 0.82,-0.97 q 8.40998,-6.31 18.43998,-3.99 7.21,1.66 10.68,8.37 2.06,3.98 1.98,13.84 -0.11,12.64 -0.03,21.01 a 0.47,0.47 0 0 1 -0.47,0.47 h -10.34 a 0.66,0.67 0 0 1 -0.66,-0.67 q 0.01,-2.19 0.13,-19.05 c 0.05,-7.13 -0.34,-12.33 -6.92,-14.61 q -2.94,-1.01 -7.05,0.38 c -7.33998,2.5 -8.02998,8.01 -7.99998,15.59 q 0.05,13.23 0.11,17.53 a 0.87,0.87 0 0 1 -0.87,0.88 h -10.1 a 0.67,0.66 0 0 1 -0.67,-0.66 v -56.54 a 0.79,0.78 0 0 1 0.79,-0.78 h 10.29 a 0.51,0.51 0 0 1 0.51,0.51 v 20.04 a 0.21,0.21 0 0 0 0.35,0.15 z" id="path13" style="fill:#d9a628;fill-opacity:0.992"></path>
  <path fill="#526b41" fill-opacity="0.992" d="m 539.11079,137.40773 h 9.61 a 0.81,0.81 0 0 1 0.81,0.81 v 9.6 a 0.41,0.42 0 0 0 0.41,0.42 h 12.7 a 0.59,0.59 0 0 1 0.59,0.59 v 7.72 a 0.66,0.66 0 0 1 -0.66,0.66 h -12.47 a 0.71,0.71 0 0 0 -0.71,0.74 q 0.17,4.22 0.22,15.98 c 0.02,2.76 0.37,5.74 2.51,7.65 2.21,1.98 8.46,0.46 10.72,-0.59 a 0.97,0.97 0 0 1 1.32,0.56 l 2.41999,6.98 a 1.19,1.18 70 0 1 -0.69,1.49 c -7.68999,2.94 -20.97999,4.01 -25.90999,-4.33 q -1.78,-3.01 -1.67,-9.76 0.09,-5.69 0.05,-18.22 a 0.58,0.57 0 0 0 -0.58,-0.57 h -4.16 a 1.31,1.31 0 0 1 -1.31,-1.31 v -6.45 a 1.1,1.1 0 0 1 1.1,-1.1 h 4.34 a 0.67,0.68 0 0 0 0.67,-0.68 v -9.51 a 0.69,0.68 0 0 1 0.69,-0.68 z" id="path14" style="fill:#d9a628;fill-opacity:0.992"></path>
  <path fill="#526b41" fill-opacity="0.992" d="m 473.27339,167.73093 a 22.83,25.08 85.8 0 1 -23.3406,24.6055 22.83,25.08 85.8 0 1 -26.6846,-20.9319 22.83,25.08 85.8 0 1 23.3406,-24.6055 22.83,25.08 85.8 0 1 26.6846,20.9319 z m -11.4826,1.8268 a 13.47,13.47 0 0 0 -13.47,-13.47 13.47,13.47 0 0 0 -13.47,13.47 13.47,13.47 0 0 0 13.47,13.47 13.47,13.47 0 0 0 13.47,-13.47 z" id="path15" style="fill:#d9a628;fill-opacity:0.992"></path>
  <path fill="#526b41" fill-opacity="0.992" d="m 513.83079,189.41773 v -3.55 a 0.41,0.41 0 0 0 -0.72,-0.26 q -6.27,7.58 -16.6,6.37 -14.95,-1.77 -15.13,-17.09 -0.15,-12.51 0.02,-26.3 a 0.46,0.46 0 0 1 0.46,-0.45 h 10.06 a 0.59,0.59 0 0 1 0.59,0.59 q -0.16,20.22 0.13,23.85 c 0.3,3.79 1.95,8.23 6.44,9.33 6.86,1.68 13.88,-1.29 14.33,-9.1 q 0.56,-9.95 0.37,-24.19 a 0.51,0.52 0 0 1 0.51,-0.52 h 10.04 a 0.57,0.57 0 0 1 0.57,0.57 v 41.67 a 0.69,0.69 0 0 1 -0.69,0.69 h -8.77 a 1.61,1.61 0 0 1 -1.61,-1.61 z" id="path16" style="fill:#d9a628;fill-opacity:0.992"></path>
  <path fill="#526b41" fill-opacity="0.992" d="m 494.25079,240.50773 q 7.68,3.19 15.99,2.39 3.58,-0.34 3.42,-3.45 a 1.31,1.31 0 0 0 -0.42,-0.89 q -1.28,-1.19 -3.18,-1.41 c -5.53,-0.64 -16.7,-1.6 -17.73,-7.98 -0.56,-3.39 1.38,-5.37 3.96,-7.02 q 1.04,-0.67 2.65,-1.05 c 5.51,-1.31 13.93,-1.44 19.09,1.36 a 1.74,1.74 0 0 1 0.68,2.4 l -0.83,1.44 a 1.84,1.83 27.2 0 1 -2.35,0.75 q -6.27,-2.84 -14.08,-1.58 a 2.38,2.52 82.2 0 0 -2.12,2.63 q 0.18,1.68 2.49,2.12 c 5.37,1.02 9.63,1.73 13.69,2.92 q 1.38,0.41 2.24,1.07 4.76,3.65 1.33,9.72 c -0.88,1.56 -4.48,3.2 -6.68,3.55 q -9.87,1.61 -19.1,-2.26 a 1.56,1.56 0 0 1 -0.96,-1.47 l 0.04,-2.02 a 1.35,1.35 0 0 1 1.87,-1.22 z" id="path17"></path>
  <path fill="#526b41" fill-opacity="0.992" d="m 371.76079,221.16773 v 20.48 a 0.57,0.57 0 0 0 0.57,0.57 h 17.07 a 0.57,0.57 0 0 1 0.57,0.57 v 4.01 a 0.57,0.57 0 0 1 -0.57,0.57 h -24.4 a 0.57,0.57 0 0 1 -0.57,-0.57 v -25.63 a 0.57,0.57 0 0 1 0.57,-0.57 h 6.19 a 0.57,0.57 0 0 1 0.57,0.57 z" id="path18"></path>
  <path fill="#526b41" fill-opacity="0.992" d="m 415.31079,220.45773 h 5.87 a 0.3,0.3 0 0 1 0.26,0.15 l 15.14,26.24 a 0.3,0.3 0 0 1 -0.26,0.45 h -7.13 a 0.3,0.3 0 0 1 -0.26,-0.17 l -2.76,-5.47 a 0.3,0.3 0 0 0 -0.26,-0.17 h -15.79 a 0.3,0.3 0 0 0 -0.28,0.19 l -2.18,5.47 a 0.3,0.3 0 0 1 -0.28,0.19 h -7.24 a 0.3,0.3 0 0 1 -0.26,-0.45 l 15.17,-26.28 a 0.3,0.3 0 0 1 0.26,-0.15 z m 2.97,16.52 q 2.9,-0.01 5.05,0.2 a 0.44,0.43 78.9 0 0 0.43,-0.64 q -3.21,-5.95 -4.93,-9.67 -0.12,-0.24 -0.6,-0.24 -0.48,0 -0.59,0.25 -1.69,3.73 -4.85,9.71 a 0.43,0.44 10.5 0 0 0.44,0.63 q 2.15,-0.23 5.05,-0.24 z" id="path19"></path>
  <path fill="#526b41" fill-opacity="0.992" d="m 473.55079,234.18773 q 1.1,-0.16 1.48,0.14 6.13,4.9 1.24,10.44 a 3.32,3.24 8.5 0 1 -1.15,0.83 q -4.25,1.81 -7.33,1.78 -11.86,-0.13 -17.64,0.08 a 0.66,0.65 88.8 0 1 -0.68,-0.66 v -25.8 a 0.37,0.37 0 0 1 0.36,-0.37 q 12.73,-0.15 18.41,0.07 5.8,0.23 8.2,4.75 1.71,3.23 -0.76,6.01 c -0.79,0.88 -1.95,1.23 -2.48,2.22 a 0.34,0.35 10.5 0 0 0.35,0.51 z m -17.51,-8.17 0.12,5.1 a 0.8,0.8 0 0 0 0.82,0.78 l 6.69,-0.15 a 3.22,6.63 88.7 0 0 6.55,-3.37 v -0.26 a 3.22,6.63 88.7 0 0 -6.71,-3.07 l -6.68,0.15 a 0.8,0.8 0 0 0 -0.79,0.82 z m -0.03,10.86 0.02,5.02 a 0.65,0.65 0 0 0 0.66,0.65 l 10.54,-0.06 a 2.58,4.21 89.7 0 0 4.19,-2.6 v -1.16 a 2.58,4.21 89.7 0 0 -4.23,-2.56 l -10.54,0.06 a 0.65,0.65 0 0 0 -0.64,0.65 z" id="path20"></path>
</svg>