<svg xmlns="http://www.w3.org/2000/svg" viewBox="-2 -2 312 302" width="312" height="302">
  <path fill="#526b41" fill-opacity="0.992" d="M 31.960785,54.997736 112.71079,3.0877362 a 5.38,5.49 7.6 0 0 0.82,-0.6399996 q 1.68,-1.58000003 3.18,-2.32000003 a 1.35,1.31 42.4 0 1 1.07,-0.03 c 1.95,0.83 4.57,1.21000003 7.07,2.15000003 q 40.86,15.2599994 53,19.8999994 53.78,20.57 97.64,36.84 3.08,1.14 4.71,4.06 14.66,26.249997 22.33,39.519994 1.77,3.06 3.7,7.61 a 0.42,0.42 0 0 1 -0.65,0.5 c -1.87,-1.45 -3.74,-1.53 -5.38,-2.28 q -10.46,-4.79 -11.1,-5.01 -0.37,-0.13 -36.78,-17.059994 c -15.16,-7.06 -31.54,-14.89 -49.58,-23.61 q -8.64,-4.17 -11.48,-5.46 c -7.39,-3.37 -12.58,-6.28 -19.61,-9.43 -7.21,-3.22 -10.72,-5.48 -17.54,-8.46 q -2.81,-1.23 -13.49,-6.85 a 2.12,2.02 57.7 0 0 -0.88,-0.22 c -4.22,-0.05 -6.26,1.15 -9.93,1.9 q -15.87,3.26 -36.270005,7.9 -32.55,7.41 -61.37,13.42 a 0.28,0.29 23 0 1 -0.21,-0.52 z" id="path1"></path>
  <path fill="#526b41" fill-opacity="0.992" d="M 75.790785,63.157736 1.8307852,115.79773 a 0.38,0.38 0 0 1 -0.6,-0.29 L 7.8515116e-4,79.977736 a 1.57,1.56 82.9 0 1 1.22000004884,-1.58 q 0.19,-0.04 14.2099998,-3.33 6.35,-1.49 13.05,-2.68 4.52,-0.8 13.04,-2.71 16.52,-3.69 21.29,-4.42 6.88,-1.05 12.79,-2.53 a 0.24,0.24 0 0 1 0.19,0.43 z" id="path3"></path>
  <path fill="#526b41" fill-opacity="0.992" d="m 179.18079,69.937736 a 0.23,0.23 0 0 1 0.35,-0.18 q 17.89,10.91 35.6,21.080001 1.91,1.1 3.11,2.559997 a 1,1.01 46.1 0 1 -0.03,1.32 c -4.53,5.03 -9.27,8.109996 -15.93,11.019996 -12.85,5.63 -28.04,5.65 -41.48,1.86 -16.99,-4.8 -30.32,-19.289997 -36.57,-35.399994 a 0.45,0.45 0 0 1 0.29,-0.6 q 5.38,-1.63 10.3,-3 c 7.87,-2.19 15.91,-2.42 24.55,-2.5 a 1.72,1.72 0 0 1 1.72,1.51 q 0.22,1.74 0.34,4.05 c 0.56,11.21 5.82,23.309998 16.19,28.729994 q 1.57,0.82 4.59,1.21 2.46,0.31 4.03,-1.01 c 5.27,-4.429996 2.54,-11.849997 -0.4,-16.669994 q -3.7,-6.08 -6.14,-11.38 -0.62,-1.33 -0.52,-2.6 z" id="path4" style="fill:#d9a628;fill-opacity:0.992"></path>
  <path fill="#526b41" fill-opacity="0.992" d="m 2.0207852,203.70773 a 0.19,0.19 0 0 1 0.17,-0.33 q 5.57,1.82 10.3099998,3.65 2.96,1.15 10.48,3.12 c 8.15,2.14 18.16,5.74 25.5,7.67 q 1.24,0.32 5.49,1.94 6.3,2.4 14.71,4.77 7.98,2.25 14.79,4.44 22.160005,7.12 40.090005,11.46 2.18,0.53 4.21,0.68 a 2.08,2.14 35.1 0 0 1.11,-0.21 l 94.75,-46.52 a 0.11,0.3 46.3 0 1 0.09,-0.04 l 5.8,-2.25 a 0.3,0.3 0 0 0 -0.02,-0.56 q -1.34,-0.4 -10.89,-5.01 -38.98,-18.81 -69.33,-33.42 -24.44,-11.77 -59.210005,-28.42 c -3.46,-1.66 -4.92,-1.87 -8.74,-1.2 q -14.74,2.58 -22.06,3.53 -5.22,0.69 -9.02,1.62 a 0.41,0.41 0 0 0 -0.09,0.77 q 15.58,7.91 36.46,18.24 18.130005,8.98 80.200005,40.28 3.11,1.57 16.85,7.77 a 0.34,0.33 22.5 0 1 0.18,0.42 v 0.01 a 0.29,0.29 0 0 1 -0.35,0.18 q -20.85,-5.98 -24.55,-6.72 -9.72,-1.96 -13.22,-3.23 c -3.28,-1.18 -7.67,-1.68 -11.15,-2.9 q -3.5,-1.22 -24.19,-6.26 -1.84,-0.45 -11.730005,-3.04 -0.22,-0.06 -8,-2.9 -4.48,-1.64 -7.91,-3.08 -35.96,-15.15 -68.3,-31.37 a 0.6,0.6 0 0 1 -0.06,-1.04 l 75.55,-49.209994 a 2.56,2.55 49.7 0 1 3.12,0.259997 c 4.45,4.090004 9.230005,7.550001 13.840005,11.370001 3.02,2.509996 6.4,5.059996 9.56,6.569996 q 17.15,8.18 36.53,15.74 4.77,1.86 42.5,15.58 21.37,7.77 34.64,12.55 28.58,10.28 69.91,25.59 2.52,0.93 3.54,1.61 a 1.24,1.25 17.5 0 1 0.55,1.07 l -0.75,36.97 a 3.13,3.16 76.9 0 1 -1.73,2.75 l -158.28,79.68 a 3.51,3.51 0 0 1 -3.64,-0.3 q -4.93,-3.59 -8.17,-5.56 c -6.32,-3.85 -13.16,-9.23 -19.16,-13.2 q -1.02,-0.68 -15.210005,-10.17 -48.9,-32.72 -65.86,-44.26 -4.25,-2.89 -8,-5.27 c -5.78,-3.66 -9.21,-6.48 -14.7199998,-9.49 q -2.66,-1.46 -6.59,-4.33 z" id="path10"></path>
  <path fill="#526b41" fill-opacity="0.992" d="m 254.06079,121.74773 c 0.23,-0.77 1.74,-1.83 2.13,-3.11 q 1.82,-6.06 -2.21,-10.92 -1.72,-2.08 -4.71,-5.32 a 0.15,0.14 76.1 0 1 0.14,-0.24 l 38.99,10.29 a 0.68,0.67 44.2 0 1 0.02,1.3 q -9.6,2.79 -26.37,7.32 -2.66,0.71 -7.54,1.22 a 0.42,0.42 0 0 1 -0.45,-0.54 z" id="path11"></path>
</svg>